TITLE ""
FILE "P1Q_t_0420-0428.mp3" MP3
  TRACK 01 AUDIO
    TITLE "P1Q_t_0420-0428_01"
    INDEX 01 00:00:00
  TRACK 02 AUDIO
    TITLE "P1Q_t_0420-0428_02"
    INDEX 01 00:01:16
  TRACK 03 AUDIO
    TITLE "P1Q_t_0420-0428_03"
    INDEX 01 00:01:37
  TRACK 04 AUDIO
    TITLE "P1Q_t_0420-0428_04"
    INDEX 01 00:04:28
  TRACK 05 AUDIO
    TITLE "P1Q_t_0420-0428_05"
    INDEX 01 00:04:47
  TRACK 06 AUDIO
    TITLE "P1Q_t_0420-0428_06"
    INDEX 01 00:11:08
  TRACK 07 AUDIO
    TITLE "P1Q_t_0420-0428_07"
    INDEX 01 00:11:53
  TRACK 08 AUDIO
    TITLE "P1Q_t_0420-0428_08"
    INDEX 01 00:12:72
  TRACK 09 AUDIO
    TITLE "P1Q_t_0420-0428_09"
    INDEX 01 00:13:17
  TRACK 10 AUDIO
    TITLE "P1Q_t_0420-0428_10"
    INDEX 01 00:16:25
  TRACK 11 AUDIO
    TITLE "P1Q_t_0420-0428_11"
    INDEX 01 00:16:49
  TRACK 12 AUDIO
    TITLE "P1Q_t_0420-0428_12"
    INDEX 01 00:21:58
  TRACK 13 AUDIO
    TITLE "P1Q_t_0420-0428_13"
    INDEX 01 00:22:31
  TRACK 14 AUDIO
    TITLE "P1Q_t_0420-0428_14"
    INDEX 01 00:23:29
  TRACK 15 AUDIO
    TITLE "P1Q_t_0420-0428_15"
    INDEX 01 00:23:47
  TRACK 16 AUDIO
    TITLE "P1Q_t_0420-0428_16"
    INDEX 01 00:38:30
  TRACK 17 AUDIO
    TITLE "P1Q_t_0420-0428_17"
    INDEX 01 00:38:50
  TRACK 18 AUDIO
    TITLE "P1Q_t_0420-0428_18"
    INDEX 01 00:42:13
  TRACK 19 AUDIO
    TITLE "P1Q_t_0420-0428_19"
    INDEX 01 00:42:60
  TRACK 20 AUDIO
    TITLE "P1Q_t_0420-0428_20"
    INDEX 01 00:44:02
  TRACK 21 AUDIO
    TITLE "P1Q_t_0420-0428_21"
    INDEX 01 00:44:23
  TRACK 22 AUDIO
    TITLE "P1Q_t_0420-0428_22"
    INDEX 01 00:46:71
  TRACK 23 AUDIO
    TITLE "P1Q_t_0420-0428_23"
    INDEX 01 00:47:16
  TRACK 24 AUDIO
    TITLE "P1Q_t_0420-0428_24"
    INDEX 01 00:51:51
  TRACK 25 AUDIO
    TITLE "P1Q_t_0420-0428_25"
    INDEX 01 00:52:21
  TRACK 26 AUDIO
    TITLE "P1Q_t_0420-0428_26"
    INDEX 01 00:53:34
  TRACK 27 AUDIO
    TITLE "P1Q_t_0420-0428_27"
    INDEX 01 00:53:57
  TRACK 28 AUDIO
    TITLE "P1Q_t_0420-0428_28"
    INDEX 01 00:57:06
  TRACK 29 AUDIO
    TITLE "P1Q_t_0420-0428_29"
    INDEX 01 00:57:26
  TRACK 30 AUDIO
    TITLE "P1Q_t_0420-0428_30"
    INDEX 01 01:01:47
  TRACK 31 AUDIO
    TITLE "P1Q_t_0420-0428_31"
    INDEX 01 01:02:17
  TRACK 32 AUDIO
    TITLE "P1Q_t_0420-0428_32"
    INDEX 01 01:03:46
  TRACK 33 AUDIO
    TITLE "P1Q_t_0420-0428_33"
    INDEX 01 01:03:64
  TRACK 34 AUDIO
    TITLE "P1Q_t_0420-0428_34"
    INDEX 01 01:05:29
  TRACK 35 AUDIO
    TITLE "P1Q_t_0420-0428_35"
    INDEX 01 01:05:49
  TRACK 36 AUDIO
    TITLE "P1Q_t_0420-0428_36"
    INDEX 01 01:09:57
  TRACK 37 AUDIO
    TITLE "P1Q_t_0420-0428_37"
    INDEX 01 01:10:31
  TRACK 38 AUDIO
    TITLE "P1Q_t_0420-0428_38"
    INDEX 01 01:11:48
  TRACK 39 AUDIO
    TITLE "P1Q_t_0420-0428_39"
    INDEX 01 01:11:69
  TRACK 40 AUDIO
    TITLE "P1Q_t_0420-0428_40"
    INDEX 01 01:14:17
  TRACK 41 AUDIO
    TITLE "P1Q_t_0420-0428_41"
    INDEX 01 01:14:36
  TRACK 42 AUDIO
    TITLE "P1Q_t_0420-0428_42"
    INDEX 01 01:18:18
  TRACK 43 AUDIO
    TITLE "P1Q_t_0420-0428_43"
    INDEX 01 01:18:67
  TRACK 44 AUDIO
    TITLE "P1Q_t_0420-0428_44"
    INDEX 01 01:19:67
  TRACK 45 AUDIO
    TITLE "P1Q_t_0420-0428_45"
    INDEX 01 01:20:13
  TRACK 46 AUDIO
    TITLE "P1Q_t_0420-0428_46"
    INDEX 01 01:22:00
  TRACK 47 AUDIO
    TITLE "P1Q_t_0420-0428_47"
    INDEX 01 01:22:22
  TRACK 48 AUDIO
    TITLE "P1Q_t_0420-0428_48"
    INDEX 01 01:27:60
  TRACK 49 AUDIO
    TITLE "P1Q_t_0420-0428_49"
    INDEX 01 01:28:30
  TRACK 50 AUDIO
    TITLE "P1Q_t_0420-0428_50"
    INDEX 01 01:29:53
  TRACK 51 AUDIO
    TITLE "P1Q_t_0420-0428_51"
    INDEX 01 01:30:00
  TRACK 52 AUDIO
    TITLE "P1Q_t_0420-0428_52"
    INDEX 01 01:32:05
  TRACK 53 AUDIO
    TITLE "P1Q_t_0420-0428_53"
    INDEX 01 01:32:24
  TRACK 54 AUDIO
    TITLE "P1Q_t_0420-0428_54"
    INDEX 01 01:37:29
